<?xml version="1.0" encoding="UTF-8"?>
<svg width="316px" height="109px" viewBox="0 0 316 109" version="1.1" xmlns:xlink="http://www.w3.org/1999/xlink" xmlns="http://www.w3.org/2000/svg" style="background-color: green;">
  <defs>
    <path d="M0 0L19 0L19 31L0 31L0 0Z" id="path_1"/>
    <path d="M0 109L316 109L316 0L0 0L0 109Z" id="path_2"/>
    <clipPath id="mask_1">
      <use xlink:href="#path_1"/>
    </clipPath>
    <clipPath id="mask_2">
      <use xlink:href="#path_2"/>
    </clipPath>
  </defs>
  <g id="Group-17">
    <g id="Group-3" transform="translate(297 64)">
      <path d="M0 0L19 0L19 31L0 31L0 0Z" id="Clip-2" fill="none" fill-rule="evenodd" stroke="none"/>
      <g clip-path="url(#mask_1)">
        <path d="M17.1123 16.4933C15.858 15.0469 14.015 13.8339 11.581 12.8534C10.3947 12.341 9.44107 11.8595 8.71954 11.4085C7.99801 10.9585 7.47496 10.4806 7.15038 9.97577C6.8258 9.47087 6.66687 8.88125 6.6721 8.20684C6.67359 7.53243 6.837 6.92409 7.16232 6.38015C7.48839 5.83629 7.96667 5.4035 8.6009 5.08162C9.23439 4.75982 10.0149 4.59477 10.9408 4.58729C11.7444 4.59401 12.4973 4.68258 13.2002 4.8536C13.9031 5.02386 14.5373 5.23694 15.1036 5.49199C15.67 5.74705 16.1505 6.00361 16.5452 6.26244L17.9323 1.72687C17.1205 1.25353 16.1154 0.851467 14.9171 0.519095C13.718 0.188309 12.3936 0.0150255 10.9408 0C8.86653 0.0179701 7.0683 0.419354 5.54615 1.20551C4.02549 1.99091 2.84806 3.05319 2.01387 4.39075C1.18116 5.72908 0.758091 7.2354 0.746899 8.90979C0.733468 10.6464 1.33412 12.2375 2.54886 13.6838C3.76285 15.1302 5.67076 16.3845 8.27334 17.4459C9.44032 17.9426 10.3715 18.4325 11.0692 18.9163C11.7661 19.4009 12.2682 19.9275 12.5734 20.4954C12.8786 21.064 13.0278 21.7219 13.0219 22.4698C13.0241 23.6251 12.6197 24.5568 11.8079 25.2657C10.9961 25.9746 9.7649 26.34 8.11292 26.3602C7.26753 26.3527 6.42587 26.2477 5.58644 26.0459C4.74702 25.8441 3.96431 25.5913 3.2383 25.2875C2.51155 24.9836 1.89448 24.6746 1.38784 24.361L0 29.0038C1.00358 29.6062 2.19817 30.0878 3.58302 30.4472C4.96788 30.8072 6.44228 30.991 8.00622 31C10.2424 30.9933 12.1809 30.6294 13.821 29.907C15.4625 29.1846 16.7325 28.1441 17.6323 26.7855C18.5314 25.4277 18.9873 23.7909 19 21.8757C18.9941 19.7339 18.3651 17.9396 17.1123 16.4933" id="Fill-1" fill="#FFFFFF" fill-rule="evenodd" stroke="none"/>
      </g>
    </g>
    <path d="M11.581 12.8534C10.3946 12.341 9.44105 11.8595 8.71953 11.4085C7.998 10.9585 7.4742 10.4806 7.15037 9.97577C6.82579 9.47087 6.66686 8.88125 6.67134 8.20684C6.67283 7.53243 6.83699 6.92409 7.16231 6.38015C7.48763 5.83629 7.96666 5.4035 8.60089 5.08162C9.23437 4.75982 10.0148 4.59477 10.9408 4.58729C11.7444 4.59401 12.4973 4.68258 13.1994 4.8536C13.9023 5.02386 14.5373 5.23694 15.1036 5.49199C15.6699 5.74705 16.1504 6.00361 16.5444 6.26244L17.9323 1.72687C17.1204 1.25353 16.1154 0.851467 14.9171 0.519095C13.718 0.188309 12.3936 0.0150255 10.9408 0C8.86652 0.0179701 7.06829 0.419354 5.54614 1.20551C4.02474 1.99091 2.84806 3.05319 2.01386 4.39075C1.18041 5.72908 0.75809 7.2354 0.746898 8.90979C0.733467 10.6464 1.33412 12.2375 2.54811 13.6838C3.76284 15.1302 5.67075 16.3845 8.27333 17.4459C9.43956 17.9426 10.3715 18.4325 11.0692 18.9163C11.7661 19.4009 12.2682 19.9275 12.5734 20.4954C12.8786 21.064 13.0278 21.7219 13.0218 22.4698C13.0241 23.6251 12.6197 24.5568 11.8078 25.2657C10.996 25.9746 9.76488 26.34 8.1129 26.3602C7.26752 26.3527 6.42586 26.2477 5.58644 26.0459C4.74702 25.8441 3.9643 25.5913 3.23755 25.2875C2.51155 24.9836 1.89448 24.6746 1.38784 24.361L0 29.0038C1.00357 29.6062 2.19742 30.0878 3.58227 30.4472C4.96713 30.8072 6.44153 30.991 8.0062 31C10.2417 30.9933 12.1802 30.6294 13.821 29.907C15.4625 29.1846 16.7324 28.1441 17.6323 26.7855C18.5314 25.4277 18.9873 23.7909 19 21.8757C18.994 19.7339 18.3643 17.9396 17.1115 16.4933C15.858 15.0469 14.0142 13.8339 11.581 12.8534" transform="translate(72 64)" id="Fill-4" fill="#FFFFFF" fill-rule="evenodd" stroke="none"/>
    <path d="M31.4439 14.1561C31.0416 15.8946 30.6722 17.5758 30.3364 19.1987C30.0005 20.8216 29.711 22.4074 29.4684 23.9562L29.3087 23.9562C29.0125 22.3817 28.6699 20.78 28.2811 19.151C27.8916 17.5221 27.4692 15.8387 27.0132 14.1016L23.1691 0L18.0973 0L14.0406 14.4283C13.6055 15.9884 13.1808 17.5766 12.7659 19.1919C12.351 20.8072 11.9928 22.3953 11.6913 23.9562L11.5845 23.9562C11.3144 22.3764 11.0144 20.786 10.6838 19.185C10.3539 17.5849 10.0136 15.9809 9.66286 14.3738L6.40609 0L0 0L8.43523 30L14.0406 30L18.0444 16.7689C18.5003 15.2829 18.9227 13.7522 19.3123 12.1777C19.7011 10.6025 20.0436 8.92213 20.3399 7.13592L20.4996 7.13592C20.8153 8.88582 21.1467 10.5299 21.4944 12.0688C21.8429 13.6078 22.2407 15.1573 22.6885 16.7159L26.4788 30L32.0842 30L41 0.00152231L34.8603 0L31.4439 14.1561Z" transform="translate(95 65)" id="Fill-6" fill="#FFFFFF" fill-rule="evenodd" stroke="none"/>
    <path d="M0 109L316 109L316 0L0 0L0 109Z" id="Clip-9" fill="none" fill-rule="evenodd" stroke="none"/>
    <g clip-path="url(#mask_2)">
      <path d="M0 30L6 30L6 0L0 0L0 30Z" transform="translate(140 65)" id="Fill-8" fill="#FFFFFF" fill-rule="evenodd" stroke="none"/>
      <path d="M3.52574 0C2.47157 0.0209522 1.62475 0.355173 0.985293 1.00411C0.345831 1.65312 0.0174003 2.49375 0 3.52592C0.00435008 4.17275 0.150078 4.75768 0.439358 5.27916C0.727913 5.80137 1.13175 6.21629 1.65158 6.52528C2.16996 6.83434 2.77825 6.99275 3.47354 7C4.20363 6.99275 4.83076 6.83434 5.3564 6.52528C5.88203 6.21629 6.28586 5.80137 6.57007 5.27916C6.85282 4.75768 6.99638 4.17275 7 3.52592C6.98477 2.49375 6.66577 1.65312 6.04081 1.00411C5.41657 0.355173 4.57846 0.0209522 3.52574 0" transform="translate(139 53)" id="Fill-10" fill="#FFFFFF" fill-rule="evenodd" stroke="none"/>
      <path d="M11.581 12.8534C10.3946 12.341 9.4418 11.8595 8.71953 11.4085C7.998 10.9585 7.47495 10.4806 7.15037 9.97577C6.82579 9.47087 6.66686 8.88125 6.67209 8.20684C6.67358 7.53243 6.83699 6.92409 7.16231 6.38015C7.48838 5.83629 7.96666 5.4035 8.60089 5.08162C9.23437 4.75982 10.0156 4.59477 10.9408 4.58729C11.7444 4.59401 12.4973 4.68258 13.2002 4.8536C13.903 5.02386 14.5373 5.23694 15.1036 5.49199C15.6699 5.74705 16.1504 6.00361 16.5452 6.26244L17.933 1.72687C17.1212 1.25353 16.1154 0.851467 14.9171 0.519095C13.718 0.188309 12.3936 0.0150255 10.9408 0C8.86726 0.0179701 7.06829 0.419354 5.54614 1.20551C4.02549 1.99091 2.84806 3.05319 2.01386 4.39075C1.18116 5.72908 0.75809 7.2354 0.746898 8.90979C0.733467 10.6464 1.33412 12.2375 2.54885 13.6838C3.76284 15.1302 5.67075 16.3845 8.27333 17.4459C9.44031 17.9426 10.3715 18.4325 11.0692 18.9163C11.7661 19.4009 12.2682 19.9275 12.5734 20.4954C12.8793 21.064 13.0278 21.7219 13.0218 22.4698C13.0241 23.6251 12.6197 24.5568 11.8078 25.2657C10.996 25.9746 9.76488 26.34 8.1129 26.3602C7.26752 26.3527 6.42586 26.2477 5.58644 26.0459C4.74702 25.8441 3.9643 25.5913 3.2383 25.2875C2.51155 24.9836 1.89448 24.6746 1.38784 24.361L0 29.0038C1.00357 29.6062 2.19816 30.0878 3.58302 30.4472C4.96788 30.8072 6.44227 30.991 8.0062 31C10.2424 30.9933 12.1809 30.6294 13.821 29.907C15.4625 29.1846 16.7324 28.1441 17.6323 26.7855C18.5314 25.4277 18.9873 23.7909 19 21.8757C18.994 19.7339 18.365 17.9396 17.1122 16.4933C15.8587 15.0469 14.015 13.8339 11.581 12.8534" transform="translate(152 64)" id="Fill-11" fill="#FFFFFF" fill-rule="evenodd" stroke="none"/>
      <path d="M11.5803 12.8534C10.3946 12.341 9.44105 11.8595 8.71953 11.4085C7.998 10.9585 7.4742 10.4806 7.15037 9.97577C6.82579 9.47087 6.66612 8.88125 6.67134 8.20684C6.67283 7.53243 6.83699 6.92409 7.16231 6.38015C7.48763 5.83629 7.96666 5.4035 8.60014 5.08162C9.23437 4.75982 10.0148 4.59477 10.9408 4.58729C11.7444 4.59401 12.4965 4.68258 13.1994 4.8536C13.9023 5.02386 14.5373 5.23694 15.1036 5.49199C15.6699 5.74705 16.1504 6.00361 16.5444 6.26244L17.9323 1.72687C17.1204 1.25353 16.1154 0.851467 14.9171 0.519095C13.718 0.188309 12.3928 0.0150255 10.9408 0C8.86652 0.0179701 7.06829 0.419354 5.54614 1.20551C4.02474 1.99091 2.84806 3.05319 2.01386 4.39075C1.18041 5.72908 0.75809 7.2354 0.746898 8.90979C0.733467 10.6464 1.33412 12.2375 2.54811 13.6838C3.76284 15.1302 5.67075 16.3845 8.27258 17.4459C9.43956 17.9426 10.3715 18.4325 11.0692 18.9163C11.7661 19.4009 12.2675 19.9275 12.5734 20.4954C12.8786 21.064 13.0278 21.7219 13.0218 22.4698C13.0241 23.6251 12.6197 24.5568 11.8078 25.2657C10.996 25.9746 9.76414 26.34 8.1129 26.3602C7.26752 26.3527 6.42511 26.2477 5.58644 26.0459C4.74702 25.8441 3.9643 25.5913 3.23755 25.2875C2.51155 24.9836 1.89448 24.6746 1.3871 24.361L0 29.0038C1.00357 29.6062 2.19742 30.0878 3.58227 30.4472C4.96713 30.8072 6.44153 30.991 8.0062 31C10.2417 30.9933 12.1802 30.6294 13.821 29.907C15.4625 29.1846 16.7324 28.1441 17.6323 26.7855C18.5314 25.4277 18.9873 23.7909 19 21.8757C18.994 19.7339 18.3643 17.9396 17.1115 16.4933C15.858 15.0469 14.0142 13.8339 11.5803 12.8534" transform="translate(174 64)" id="Fill-12" fill="#FFFFFF" fill-rule="evenodd" stroke="none"/>
      <path d="M8.70485 8.07486C9.47543 7.10711 10.4224 6.34942 11.5466 5.8033C12.6708 5.25642 13.9624 4.97886 15.4199 4.96912C16.6844 4.98566 17.7565 5.11613 18.6357 5.36069C19.5163 5.60676 20.2243 5.87231 20.7597 6.15741L22 1.35033C21.3365 1.01124 20.4264 0.705139 19.2698 0.432114C18.1139 0.160523 16.8125 0.0165355 15.3664 0C12.974 0.0127603 10.8311 0.414068 8.93783 1.20475C7.0438 1.99544 5.43252 3.10423 4.10323 4.53029C2.77319 5.9571 1.75831 7.62923 1.05861 9.54743C0.358147 11.4656 0.00527795 13.5578 0 15.8248C0.0158338 18.9358 0.60621 21.6237 1.77038 23.8877C2.93454 26.1509 4.57523 27.898 6.69169 29.1298C8.8089 30.3609 11.3054 30.9843 14.1796 31C15.3347 30.9933 16.4039 30.9108 17.3878 30.7517C18.371 30.5934 19.2404 30.3991 19.9966 30.1681C20.7521 29.9378 21.3666 29.7105 21.8386 29.4876L20.9753 24.7894C20.2832 25.0991 19.4832 25.3715 18.5754 25.6063C17.6676 25.8418 16.5976 25.9656 15.3664 25.9776C13.6254 25.9701 12.0797 25.553 10.7301 24.7271C9.37967 23.9019 8.31729 22.7129 7.54294 21.1608C6.76935 19.6087 6.37425 17.74 6.35842 15.5547C6.36068 14.0867 6.55898 12.7154 6.95483 11.4401C7.35143 10.1648 7.93502 9.04328 8.70485 8.07486" transform="translate(198 64)" id="Fill-13" fill="#FFFFFF" fill-rule="evenodd" stroke="none"/>
      <path d="M20.2045 19.6507C19.8735 20.9574 19.3958 22.1089 18.7709 23.1051C18.1459 24.1014 17.3898 24.8815 16.5035 25.4457C15.6156 26.0098 14.6152 26.2971 13.5 26.3068C12.3722 26.2963 11.3637 26.0098 10.4751 25.4479C9.58573 24.8846 8.83117 24.1081 8.20915 23.1187C7.58861 22.1292 7.11469 20.9889 6.78814 19.6964C6.46232 18.4046 6.29793 17.0236 6.2957 15.5539C6.29274 14.2539 6.42455 12.9666 6.69261 11.6913C6.95919 10.4161 7.38201 9.2518 7.95812 8.19859C8.53423 7.14537 9.28361 6.30138 10.207 5.66828C11.1304 5.03434 12.2456 4.70952 13.5533 4.69306C14.8344 4.71028 15.9296 5.03963 16.8382 5.68179C17.7467 6.32313 18.4858 7.17157 19.0552 8.22562C19.6254 9.28034 20.0438 10.4356 20.3089 11.6913C20.5754 12.9479 20.7073 14.1992 20.7043 15.446C20.7021 16.9418 20.5347 18.3431 20.2045 19.6507M20.7509 1.93314C18.7753 0.663911 16.4464 0.0194802 13.7651 0C11.8206 0.00377523 10.016 0.351096 8.35133 1.04196C6.68743 1.73366 5.23087 2.74935 3.98239 4.08917C2.73317 5.42893 1.76016 7.07259 1.06261 9.02C0.365065 10.9682 0.010367 13.1999 0 15.716C0.00962646 18.1248 0.349515 20.2733 1.01892 22.1622C1.68833 24.0496 2.62506 25.6505 3.82985 26.9648C5.0339 28.2783 6.44454 29.2782 8.06105 29.9647C9.67755 30.6503 11.4377 30.9954 13.3408 30.9999C15.0032 31.0044 16.6382 30.7081 18.2466 30.1095C19.8542 29.5108 21.3167 28.5791 22.634 27.3158C23.9506 26.0518 25.0029 24.4254 25.79 22.4353C26.5772 20.4458 26.9807 18.0617 27 15.2839C26.9852 12.2203 26.4335 9.54664 25.3465 7.2624C24.2594 4.97885 22.7273 3.20245 20.7509 1.93314" transform="translate(223 64)" id="Fill-14" fill="#FFFFFF" fill-rule="evenodd" stroke="none"/>
      <path d="M31.4444 14.1561C31.0414 15.8946 30.672 17.5758 30.3362 19.1987C30.0003 20.8216 29.7115 22.4074 29.469 23.9562L29.3085 23.9562C29.013 22.3817 28.6704 20.78 28.2809 19.151C27.8921 17.5221 27.4689 15.8387 27.0129 14.1016L23.1695 0L18.0977 0L14.0401 14.4283C13.6057 15.9884 13.1811 17.5766 12.7654 19.1919C12.3512 20.8072 11.993 22.3953 11.6915 23.9562L11.5848 23.9562C11.3146 22.3764 11.0146 20.786 10.684 19.185C10.3534 17.5849 10.0131 15.9809 9.66229 14.3738L6.4062 0L0 0L8.43464 30L14.0401 30L18.0439 16.7689C18.4999 15.2829 18.9231 13.7522 19.3119 12.1777C19.7015 10.6025 20.044 8.92213 20.3395 7.13592L20.5 7.13592C20.8149 8.88582 21.1463 10.5299 21.4941 12.0688C21.8426 13.6078 22.2411 15.1573 22.6889 16.7159L26.4793 30L32.0848 30L41 0.00152231L34.861 0L31.4444 14.1561Z" transform="translate(253 65)" id="Fill-15" fill="#FFFFFF" fill-rule="evenodd" stroke="none"/>
      <path d="M73.6137 24.5744C75.0682 24.8956 76.9094 24.9783 79.3868 24.6677C77.4171 26.1412 75.6228 27.0801 73.8795 27.782C73.7044 26.7136 73.637 25.6055 73.6137 24.5744L73.6137 24.5744ZM95.9561 54.0113L89.2755 42.9793C86.5266 42.2594 84.5385 41.5441 82.7282 40.9623C83.7919 40.3226 84.7603 39.795 85.6044 39.4291C89.7891 41.8847 92.8365 39.3475 96.1735 40.0205L100.456 42.1058L105 39.6525L97.1627 37.289L86.4545 33.9288C82.2384 34.4587 79.6674 34.3414 76.7786 34.5589C76.4995 33.7975 76.1615 33.0057 75.7432 32.1686C75.4351 31.3227 74.978 30.5657 74.4101 29.8793C74.3135 29.6166 74.2284 29.3449 74.1534 29.0667C78.2369 28.0468 81.5452 25.72 84.4472 22.3538C86.1688 23.6072 89.4096 22.4844 91.4431 20.2657C91.7848 19.8946 91.8592 19.37 91.9701 18.7103L87.2271 14.3943C86.8847 14.5486 85.9714 14.7097 85.5225 15.1987C84.0078 16.841 82.8265 20.069 83.7941 21.6422C83.8142 21.6749 83.8349 21.7067 83.8561 21.738C80.816 22.7044 77.1197 23.1886 73.605 22.8456C73.6121 21.7762 73.6273 20.9142 73.5422 20.4564C76.5441 18.3875 79.0258 15.3969 81.043 12.3581L83.3371 10.2661L83.2984 8.90144C82.2384 9.35478 80.9321 9.70437 79.8267 9.62348C81.1517 8.95561 82.3173 8.23728 83.2567 7.44919L83.2113 5.94425C83.0848 1.6669 76.2657 7.08854 70.3333 5.83962L68.5349 5.16729C66.7834 4.5127 65.0216 4.63967 63.0201 6.18238C61.7322 3.48871 63.3819 1.81606 65.1004 0.353415C65.0216 -1.51589 57.6774 4.46974 60.0293 8.00872L59.853 8.20537C56.4771 7.7898 52.9506 10.2617 54.4348 12.6059C56.3096 15.5727 57.8316 14.2066 59.2705 12.9547C59.5788 16.1345 56.3308 23.772 53.1514 27.8987C51.1279 29.2114 49.6857 30.3965 49.4094 30.6681C48.2589 31.7783 43.4055 37.8656 41.1669 40.6959C33.8263 43.5892 29.9646 45.8006 24.2682 49.2015L22.3147 52.0308C9.17305 61.4667 6.9877 41.4743 9.48925 37.1331C10.8438 29.7146 5.92373 28.9072 4.81233 27.9766C1.82912 29.0719 -0.582587 32.2903 0.124101 34.2724C-0.691337 34.6665 9.12772 31.0696 7.45263 37.4062C5.73861 46.7394 5.96936 58.9971 18.1311 58.129C18.4119 58.1102 18.6815 58.0879 18.9444 58.0647C19.5123 58.8368 20.6151 59.9405 20.8348 59.8919L28.3595 72.1992C27.8392 77.239 27.1958 82.0643 25.4008 84.8857C27.7959 90.233 28.7721 96.2163 29.0728 102.412L27.7825 109L32.8967 107.934C32.5972 106.036 32.6272 104.072 31.6963 102.2C32.1135 97.6241 33.7343 92.216 33.8607 85.4519C35.4837 84.2984 36.937 83.1703 38.2372 82.0711C39.4142 85.5149 40.417 88.4357 40.5035 88.5896C40.6643 88.8717 47.2818 88.6228 50.5909 88.4966L52.4002 92.3387L57.3903 89.8914L53.9988 86.5712L44.5262 84.4411C46.4179 82.2171 48.0562 79.3419 49.2877 76.2989C49.4664 76.3128 49.6461 76.3204 49.8267 76.3218C50.228 77.2222 50.7367 78.0853 51.4839 78.5065C52.8799 79.2915 53.1278 77.3938 52.9186 75.7066C52.9835 75.6792 53.0479 75.6511 53.1118 75.622C53.6753 76.1445 54.2917 76.5669 54.9551 76.6828C56.4217 76.9379 56.1803 75.3418 55.5272 73.8942C55.6801 73.7319 55.8257 73.5634 55.9636 73.3891C56.6632 73.614 57.3654 73.7284 57.9904 73.5683C59.4455 73.1935 58.5336 71.8155 57.3228 70.7616C57.3599 70.6347 57.3938 70.5069 57.4244 70.378C58.1145 70.4236 58.7791 70.3651 59.3216 70.0835C60.8152 69.3093 59.1221 67.9739 57.5098 67.2471C57.4643 66.9954 57.406 66.7435 57.3342 66.4924C57.2792 66.2999 57.2174 66.1114 57.149 65.9268L68.6168 60.259C71.8607 57.4266 74.0141 53.9031 75.6933 50.7909C78.8628 49.8298 81.8692 48.8068 84.1991 48.2604C87.0767 50.2578 90.1196 49.8364 93.2482 55.0456L93.9024 59.1507L98.6901 60.3221L95.9561 54.0113Z" id="Fill-16" fill="#000000" fill-rule="evenodd" stroke="none"/>
    </g>
  </g>
	<style>
		element {
			background-color: green;
		}
		svg {
			width: 1000px;
			height: auto;
			display: block;
			margin: auto;
			padding-top: 15%;
		}
	</style>

</svg>